<?xml version="1.0" encoding="UTF-8" standalone="no"?>
<!DOCTYPE svg PUBLIC "-//W3C//DTD SVG 1.1//EN" "http://www.w3.org/Graphics/SVG/1.1/DTD/svg11.dtd">
<svg xmlns="http://www.w3.org/2000/svg" version="1.1" viewBox="0.00 0.00 225.00 225.00">
<g stroke-width="2.00" fill="none" stroke-linecap="butt">
<path stroke="#808080" vector-effect="non-scaling-stroke" d="
  M 112.32 85.96
  Q 130.01 85.96 130.05 85.96
  A 2.07 2.06 -86.8 0 0 132.04 84.17
  L 139.26 30.38
  A 1.58 1.58 0.0 0 0 137.97 28.62
  Q 124.89 26.30 112.32 26.30
  Q 99.75 26.30 86.67 28.62
  A 1.58 1.58 0.0 0 0 85.38 30.38
  L 92.61 84.17
  A 2.07 2.06 86.8 0 0 94.59 85.96
  Q 94.63 85.96 112.32 85.96"
/>
<path stroke="#808080" vector-effect="non-scaling-stroke" d="
  M 92.87 95.83
  L 85.53 95.83
  A 2.61 2.60 32.8 0 0 84.46 96.06
  Q 79.82 98.14 80.12 103.13
  A 1.07 1.06 -5.3 0 1 79.19 104.24
  L 67.68 105.71
  A 1.79 1.76 -59.6 0 0 67.16 105.85
  Q 59.90 108.97 61.11 116.74
  Q 63.47 131.85 70.88 178.09
  Q 71.58 182.48 75.08 184.33
  Q 77.26 185.48 82.67 185.51
  Q 114.02 185.66 145.26 185.49
  C 151.22 185.46 153.83 179.64 154.66 174.68
  Q 155.55 169.27 163.77 117.50
  C 165.79 104.77 154.49 105.09 145.92 104.43
  A 1.12 1.11 4.2 0 1 144.89 103.25
  Q 145.19 98.31 140.70 96.13
  A 2.99 2.89 -31.0 0 0 139.40 95.83
  L 132.03 95.83
  A 0.60 0.60 0.0 0 1 131.43 95.23
  L 131.43 91.26
  A 1.52 1.52 0.0 0 0 129.91 89.74
  L 95.26 89.74
  A 1.71 1.70 0.0 0 0 93.55 91.44
  L 93.55 95.15
  A 0.68 0.68 0.0 0 1 92.87 95.83"
/>
<path stroke="#808080" vector-effect="non-scaling-stroke" d="
  M 112.38 84.70
  Q 129.38 84.68 129.42 84.68
  A 1.99 1.98 -86.9 0 0 131.32 82.96
  L 138.19 31.25
  A 1.52 1.51 8.7 0 0 136.95 29.55
  Q 124.38 27.34 112.30 27.36
  Q 100.21 27.38 87.65 29.62
  A 1.52 1.51 -8.8 0 0 86.41 31.32
  L 93.42 83.01
  A 1.99 1.98 86.7 0 0 95.33 84.72
  Q 95.37 84.72 112.38 84.70"
/>
<path stroke="#80abe5" vector-effect="non-scaling-stroke" d="
  M 105.2900 35.9800
  A 12.81 6.29 -180.0 0 0 118.1000 42.2700
  A 12.81 6.29 -180.0 0 0 130.9100 35.9800
  A 12.81 6.29 -180.0 0 0 118.1000 29.6900
  A 12.81 6.29 -180.0 0 0 105.2900 35.9800"
/>
<path stroke="#80abe5" vector-effect="non-scaling-stroke" d="
  M 123.7599 48.5111
  A 4.14 3.42 -0.4 0 0 119.5961 45.1201
  A 4.14 3.42 -0.4 0 0 115.4801 48.5689
  A 4.14 3.42 -0.4 0 0 119.6439 51.9599
  A 4.14 3.42 -0.4 0 0 123.7599 48.5111"
/>
<path stroke="#808080" vector-effect="non-scaling-stroke" d="
  M 130.46 91.80
  A 0.92 0.92 0.0 0 0 129.54 90.88
  L 95.27 90.88
  A 0.73 0.73 0.0 0 0 94.54 91.61
  L 94.54 95.37
  A 1.58 1.58 0.0 0 1 93.01 96.95
  Q 89.75 97.08 86.90 96.97
  C 83.99 96.87 82.40 98.22 81.35 100.66
  A 0.86 0.78 -35.0 0 0 81.27 101.01
  L 81.15 104.25
  A 0.88 0.88 0.0 0 1 80.40 105.10
  Q 75.84 105.82 72.81 106.06
  Q 67.59 106.48 65.51 107.88
  Q 61.20 110.79 62.17 116.81
  Q 66.53 143.69 71.49 175.50
  Q 71.85 177.80 72.17 178.89
  A 5.47 5.34 -80.8 0 0 72.44 179.61
  C 74.35 183.73 77.57 184.60 82.15 184.57
  Q 110.63 184.38 143.90 184.57
  C 149.90 184.60 152.47 180.51 153.46 175.03
  Q 154.76 167.88 162.51 118.53
  Q 163.20 114.13 162.91 112.94
  C 161.69 107.89 158.02 106.58 152.45 106.09
  Q 150.27 105.90 144.58 105.12
  A 0.87 0.87 0.0 0 1 143.83 104.28
  L 143.74 101.13
  A 1.38 1.30 -60.0 0 0 143.62 100.62
  Q 142.55 98.24 140.49 97.17
  A 1.61 1.61 0.0 0 0 139.77 97.00
  L 132.24 97.00
  A 1.78 1.78 0.0 0 1 130.46 95.22
  L 130.46 91.80"
/>
<path stroke="#d0e8ff" vector-effect="non-scaling-stroke" d="
  M 127.18 93.59
  L 97.84 93.59
  A 0.50 0.50 0.0 0 0 97.34 94.09
  L 97.34 98.03
  A 1.62 1.62 0.0 0 1 95.72 99.65
  L 86.65 99.65
  A 2.59 2.58 -0.0 0 0 84.06 102.23
  L 84.06 106.05
  A 1.88 1.87 86.9 0 1 82.39 107.92
  Q 77.83 108.40 70.04 109.29
  C 65.63 109.79 64.45 112.75 65.14 117.02
  Q 66.29 124.10 74.58 176.48
  C 75.31 181.14 78.07 181.74 82.45 181.73
  Q 98.82 181.69 144.96 181.68
  A 4.38 4.37 -74.3 0 0 148.69 179.59
  Q 150.25 177.03 150.75 174.03
  Q 153.64 156.63 159.92 116.35
  C 160.68 111.50 158.45 109.66 153.63 109.12
  Q 149.10 108.63 142.61 107.89
  A 1.88 1.87 -86.9 0 1 140.94 106.02
  L 140.94 102.29
  A 2.65 2.65 0.0 0 0 138.29 99.64
  L 129.26 99.64
  A 1.59 1.58 -90.0 0 1 127.68 98.05
  L 127.68 94.09
  A 0.50 0.50 0.0 0 0 127.18 93.59"
/>
<path stroke="#5194e5" vector-effect="non-scaling-stroke" d="
  M 68.30 120.44
  Q 71.87 141.82 77.22 174.02
  C 77.87 177.95 79.45 179.12 83.51 179.12
  Q 133.83 179.09 140.58 179.12
  C 143.61 179.14 146.68 178.67 147.17 175.43
  Q 152.17 142.89 154.76 125.94
  C 155.43 121.56 151.77 117.93 148.24 115.83
  C 139.95 110.88 126.80 111.86 118.02 114.78
  C 102.48 119.96 84.70 131.64 68.78 120.14
  A 0.31 0.30 -76.7 0 0 68.30 120.44"
/>
<path stroke="#80abe5" vector-effect="non-scaling-stroke" d="
  M 117.31 131.87
  A 0.77 0.76 -82.6 0 0 116.74 131.13
  C 114.11 130.43 110.09 130.50 108.99 133.54
  C 106.75 139.75 116.09 140.46 115.17 144.82
  A 2.31 2.31 0.0 0 1 113.10 146.64
  Q 111.54 146.77 110.04 146.06
  A 0.53 0.53 0.0 0 0 109.28 146.54
  L 109.28 147.41
  A 1.21 1.21 0.0 0 0 110.18 148.58
  Q 115.60 150.03 117.84 146.37
  C 119.28 144.02 117.84 141.33 115.61 139.62
  Q 113.29 137.85 112.54 137.12
  A 2.44 2.23 43.7 0 1 112.32 133.85
  Q 114.02 132.02 116.76 133.57
  A 0.37 0.37 0.0 0 0 117.31 133.25
  L 117.31 131.87"
/>
<path stroke="#80abe5" vector-effect="non-scaling-stroke" d="
  M 85.17 140.01
  Q 85.27 147.34 85.25 148.32
  A 0.61 0.61 0.0 0 0 85.86 148.94
  C 90.44 148.93 95.61 149.25 94.68 142.81
  Q 94.43 141.06 92.79 140.43
  Q 92.13 140.18 92.12 139.92
  Q 92.12 139.65 92.77 139.38
  Q 94.40 138.71 94.60 136.95
  C 95.35 130.49 90.19 130.95 85.62 131.07
  A 0.61 0.61 0.0 0 0 85.02 131.70
  Q 85.07 132.68 85.17 140.01"
/>
<path stroke="#80abe5" vector-effect="non-scaling-stroke" d="
  M 105.86 139.16
  A 0.44 0.44 0.0 0 0 105.42 138.72
  L 101.58 138.72
  A 0.44 0.44 0.0 0 1 101.14 138.28
  L 101.14 133.57
  A 0.44 0.44 0.0 0 1 101.58 133.13
  L 105.96 133.13
  A 0.44 0.44 0.0 0 0 106.40 132.69
  L 106.40 131.51
  A 0.44 0.44 0.0 0 0 105.96 131.07
  L 98.38 131.07
  A 0.44 0.44 0.0 0 0 97.94 131.51
  L 97.94 148.49
  A 0.44 0.44 0.0 0 0 98.38 148.93
  L 106.00 148.93
  A 0.44 0.44 0.0 0 0 106.44 148.49
  L 106.44 147.33
  A 0.44 0.44 0.0 0 0 106.00 146.89
  L 101.56 146.89
  A 0.44 0.44 0.0 0 1 101.12 146.45
  L 101.12 141.24
  A 0.44 0.44 0.0 0 1 101.56 140.80
  L 105.42 140.80
  A 0.44 0.44 0.0 0 0 105.86 140.36
  L 105.86 139.16"
/>
<path stroke="#80abe5" vector-effect="non-scaling-stroke" d="
  M 124.69 148.95
  Q 125.13 148.95 125.70 148.96
  A 0.54 0.54 0.0 0 0 126.25 148.42
  L 126.25 133.70
  A 0.52 0.51 -90.0 0 1 126.76 133.18
  L 129.10 133.18
  A 0.83 0.83 0.0 0 0 129.93 132.35
  L 129.93 131.98
  A 0.91 0.91 0.0 0 0 129.03 131.07
  Q 127.04 131.06 124.66 131.07
  Q 122.29 131.07 120.30 131.09
  A 0.91 0.91 0.0 0 0 119.40 132.00
  L 119.40 132.37
  A 0.83 0.83 0.0 0 0 120.24 133.19
  L 122.58 133.19
  A 0.52 0.51 89.8 0 1 123.09 133.71
  L 123.14 148.43
  A 0.54 0.54 0.0 0 0 123.69 148.96
  Q 124.26 148.95 124.69 148.95"
/>
<path stroke="#80abe5" vector-effect="non-scaling-stroke" d="
  M 131.60 139.94
  Q 131.60 147.31 131.63 148.20
  A 0.71 0.70 89.0 0 0 132.33 148.89
  L 139.45 148.89
  A 0.62 0.61 90.0 0 0 140.06 148.27
  L 140.06 147.45
  A 0.63 0.63 0.0 0 0 139.43 146.82
  L 135.50 146.82
  A 0.67 0.67 0.0 0 1 134.83 146.15
  L 134.83 141.91
  A 1.03 1.03 0.0 0 1 136.01 140.89
  Q 139.84 141.49 139.62 139.94
  Q 139.85 138.39 136.02 138.98
  A 1.03 1.03 0.0 0 1 134.83 137.97
  L 134.84 133.73
  A 0.67 0.67 0.0 0 1 135.51 133.06
  L 139.44 133.06
  A 0.63 0.63 0.0 0 0 140.07 132.43
  L 140.07 131.61
  A 0.62 0.61 -89.9 0 0 139.46 130.99
  L 132.34 130.98
  A 0.71 0.70 -89.0 0 0 131.64 131.67
  Q 131.61 132.56 131.60 139.94"
/>
<path stroke="#80abe5" vector-effect="non-scaling-stroke" d="
  M 112.69 158.87
  L 108.79 158.87
  A 0.74 0.73 90.0 0 0 108.06 159.61
  L 108.06 160.25
  A 0.62 0.62 0.0 0 0 108.68 160.87
  L 109.99 160.87
  A 0.64 0.64 0.0 0 1 110.63 161.54
  Q 110.50 164.31 109.85 165.24
  A 1.98 1.98 0.0 0 1 107.13 165.75
  C 105.04 164.34 105.76 156.88 106.17 154.28
  C 106.52 152.04 109.82 152.05 110.16 154.26
  A 0.68 0.68 0.0 0 0 110.97 154.82
  Q 112.17 154.58 112.63 154.26
  A 0.78 0.77 -32.6 0 0 112.86 153.24
  C 110.68 149.36 104.27 149.54 103.23 154.44
  C 102.12 159.69 101.91 170.35 110.52 167.70
  C 113.30 166.84 113.27 161.95 113.24 159.42
  A 0.56 0.55 89.5 0 0 112.69 158.87"
/>
<path stroke="#80abe5" vector-effect="non-scaling-stroke" d="
  M 82.93 156.55
  L 87.08 167.23
  A 1.53 1.53 0.0 0 0 90.04 166.67
  L 90.04 151.27
  A 0.53 0.53 0.0 0 0 89.51 150.74
  L 87.67 150.74
  A 0.42 0.42 0.0 0 0 87.25 151.16
  L 87.25 161.22
  A 0.06 0.06 0.0 0 1 87.13 161.24
  L 83.34 151.50
  A 1.55 1.55 0.0 0 0 80.34 152.06
  L 80.34 167.42
  A 0.53 0.53 0.0 0 0 80.87 167.95
  L 82.62 167.95
  A 0.50 0.50 0.0 0 0 83.12 167.43
  L 82.77 156.58
  A 0.08 0.08 0.0 0 1 82.93 156.55"
/>
<path stroke="#80abe5" vector-effect="non-scaling-stroke" d="
  M 96.00 160.54
  A 0.41 0.41 0.0 0 1 96.41 160.13
  L 99.58 160.13
  A 0.41 0.41 0.0 0 0 99.99 159.72
  L 99.99 158.55
  A 0.41 0.41 0.0 0 0 99.58 158.14
  L 96.40 158.14
  A 0.41 0.41 0.0 0 1 95.99 157.73
  L 95.99 153.20
  A 0.41 0.41 0.0 0 1 96.40 152.79
  L 100.24 152.79
  A 0.41 0.41 0.0 0 0 100.65 152.38
  L 100.65 151.17
  A 0.41 0.41 0.0 0 0 100.24 150.76
  L 93.54 150.76
  A 0.41 0.41 0.0 0 0 93.13 151.17
  L 93.13 167.54
  A 0.41 0.41 0.0 0 0 93.54 167.95
  L 100.27 167.95
  A 0.41 0.41 0.0 0 0 100.68 167.54
  L 100.68 166.46
  A 0.41 0.41 0.0 0 0 100.27 166.05
  L 96.41 166.05
  A 0.41 0.41 0.0 0 1 96.00 165.64
  L 96.00 160.54"
/>
<path stroke="#80abe5" vector-effect="non-scaling-stroke" d="
  M 119.29 166.03
  A 0.42 0.42 0.0 0 1 118.87 165.61
  L 118.87 151.20
  A 0.42 0.42 0.0 0 0 118.45 150.78
  L 116.45 150.78
  A 0.42 0.42 0.0 0 0 116.03 151.20
  L 116.03 167.53
  A 0.42 0.42 0.0 0 0 116.45 167.95
  L 123.00 167.95
  A 0.42 0.42 0.0 0 0 123.42 167.53
  L 123.42 166.45
  A 0.42 0.42 0.0 0 0 123.00 166.03
  L 119.29 166.03"
/>
<path stroke="#80abe5" vector-effect="non-scaling-stroke" d="
  M 132.04 158.77
  A 0.63 0.63 0.0 0 0 131.40 158.11
  L 128.58 158.16
  A 0.60 0.59 89.1 0 1 127.97 157.56
  L 127.98 153.47
  A 0.69 0.68 -89.6 0 1 128.66 152.79
  L 131.97 152.80
  A 0.75 0.74 86.9 0 0 132.71 151.97
  L 132.67 151.45
  A 0.75 0.74 -2.1 0 0 131.92 150.77
  L 125.54 150.76
  A 0.42 0.41 90.0 0 0 125.13 151.18
  L 125.11 167.30
  A 0.67 0.67 0.0 0 0 125.79 167.97
  L 131.85 167.93
  A 0.91 0.90 3.2 0 0 132.75 167.13
  L 132.78 166.89
  A 0.80 0.79 -88.0 0 0 131.98 166.03
  L 128.72 166.04
  A 0.74 0.74 0.0 0 1 127.98 165.30
  L 127.98 160.64
  A 0.60 0.59 -88.2 0 1 128.61 160.04
  L 131.33 160.21
  A 0.61 0.60 3.3 0 0 131.98 159.64
  L 132.04 158.77"
/>
<path stroke="#80abe5" vector-effect="non-scaling-stroke" d="
  M 137.86 160.75
  A 0.21 0.21 0.0 0 1 138.26 160.66
  L 141.41 167.37
  A 1.00 1.00 0.0 0 0 142.32 167.95
  L 143.84 167.95
  A 0.43 0.42 -12.4 0 0 144.23 167.35
  L 140.91 160.29
  A 0.66 0.66 0.0 0 1 141.24 159.41
  Q 143.99 158.23 143.44 153.99
  A 3.74 3.74 0.0 0 0 139.73 150.74
  L 136.36 150.74
  A 1.31 1.31 0.0 0 0 135.05 152.05
  L 135.05 167.29
  A 0.67 0.66 0.0 0 0 135.72 167.95
  L 137.27 167.95
  A 0.59 0.59 0.0 0 0 137.86 167.36
  L 137.86 160.75"
/>
<path stroke="#80abe5" vector-effect="non-scaling-stroke" d="
  M 88.20 133.25
  L 88.14 138.61
  A 0.29 0.29 0.0 0 0 88.42 138.90
  L 88.82 138.91
  A 2.49 2.28 0.7 0 0 91.34 136.66
  L 91.36 135.28
  A 2.49 2.28 0.7 0 0 88.90 132.97
  L 88.50 132.96
  A 0.29 0.29 0.0 0 0 88.20 133.25"
/>
<path stroke="#80abe5" vector-effect="non-scaling-stroke" d="
  M 88.16 141.18
  L 88.16 146.46
  A 0.33 0.33 0.0 0 0 88.49 146.79
  L 89.00 146.79
  A 2.56 2.38 0.0 0 0 91.56 144.41
  L 91.56 143.23
  A 2.56 2.38 0.0 0 0 89.00 140.85
  L 88.49 140.85
  A 0.33 0.33 0.0 0 0 88.16 141.18"
/>
<path stroke="#80abe5" vector-effect="non-scaling-stroke" d="
  M 137.86 153.15
  L 137.88 157.89
  A 0.44 0.44 0.0 0 0 138.32 158.33
  L 138.44 158.33
  A 2.26 2.23 -0.2 0 0 140.69 156.10
  L 140.69 154.94
  A 2.26 2.23 -0.2 0 0 138.42 152.71
  L 138.30 152.71
  A 0.44 0.44 0.0 0 0 137.86 153.15"
/>
</g>
<path fill="#ffffff" d="
  M 225.00 0.00
  L 225.00 225.00
  L 0.00 225.00
  L 0.00 0.00
  L 225.00 0.00
  Z
  M 112.32 85.96
  Q 130.01 85.96 130.05 85.96
  A 2.07 2.06 -86.8 0 0 132.04 84.17
  L 139.26 30.38
  A 1.58 1.58 0.0 0 0 137.97 28.62
  Q 124.89 26.30 112.32 26.30
  Q 99.75 26.30 86.67 28.62
  A 1.58 1.58 0.0 0 0 85.38 30.38
  L 92.61 84.17
  A 2.07 2.06 86.8 0 0 94.59 85.96
  Q 94.63 85.96 112.32 85.96
  Z
  M 92.87 95.83
  L 85.53 95.83
  A 2.61 2.60 32.8 0 0 84.46 96.06
  Q 79.82 98.14 80.12 103.13
  A 1.07 1.06 -5.3 0 1 79.19 104.24
  L 67.68 105.71
  A 1.79 1.76 -59.6 0 0 67.16 105.85
  Q 59.90 108.97 61.11 116.74
  Q 63.47 131.85 70.88 178.09
  Q 71.58 182.48 75.08 184.33
  Q 77.26 185.48 82.67 185.51
  Q 114.02 185.66 145.26 185.49
  C 151.22 185.46 153.83 179.64 154.66 174.68
  Q 155.55 169.27 163.77 117.50
  C 165.79 104.77 154.49 105.09 145.92 104.43
  A 1.12 1.11 4.2 0 1 144.89 103.25
  Q 145.19 98.31 140.70 96.13
  A 2.99 2.89 -31.0 0 0 139.40 95.83
  L 132.03 95.83
  A 0.60 0.60 0.0 0 1 131.43 95.23
  L 131.43 91.26
  A 1.52 1.52 0.0 0 0 129.91 89.74
  L 95.26 89.74
  A 1.71 1.70 0.0 0 0 93.55 91.44
  L 93.55 95.15
  A 0.68 0.68 0.0 0 1 92.87 95.83
  Z"
/>
<g>
<path fill="#000101" d="
  M 112.32 26.30
  Q 124.89 26.30 137.97 28.62
  A 1.58 1.58 0.0 0 1 139.26 30.38
  L 132.04 84.17
  A 2.07 2.06 -86.8 0 1 130.05 85.96
  Q 130.01 85.96 112.32 85.96
  Q 94.63 85.96 94.59 85.96
  A 2.07 2.06 86.8 0 1 92.61 84.17
  L 85.38 30.38
  A 1.58 1.58 0.0 0 1 86.67 28.62
  Q 99.75 26.30 112.32 26.30
  Z
  M 112.38 84.70
  Q 129.38 84.68 129.42 84.68
  A 1.99 1.98 -86.9 0 0 131.32 82.96
  L 138.19 31.25
  A 1.52 1.51 8.7 0 0 136.95 29.55
  Q 124.38 27.34 112.30 27.36
  Q 100.21 27.38 87.65 29.62
  A 1.52 1.51 -8.8 0 0 86.41 31.32
  L 93.42 83.01
  A 1.99 1.98 86.7 0 0 95.33 84.72
  Q 95.37 84.72 112.38 84.70
  Z"
/>
<path fill="#000101" d="
  M 93.55 95.15
  L 93.55 91.44
  A 1.71 1.70 -0.0 0 1 95.26 89.74
  L 129.91 89.74
  A 1.52 1.52 0.0 0 1 131.43 91.26
  L 131.43 95.23
  A 0.60 0.60 0.0 0 0 132.03 95.83
  L 139.40 95.83
  A 2.99 2.89 -31.0 0 1 140.70 96.13
  Q 145.19 98.31 144.89 103.25
  A 1.12 1.11 4.2 0 0 145.92 104.43
  C 154.49 105.09 165.79 104.77 163.77 117.50
  Q 155.55 169.27 154.66 174.68
  C 153.83 179.64 151.22 185.46 145.26 185.49
  Q 114.02 185.66 82.67 185.51
  Q 77.26 185.48 75.08 184.33
  Q 71.58 182.48 70.88 178.09
  Q 63.47 131.85 61.11 116.74
  Q 59.90 108.97 67.16 105.85
  A 1.79 1.76 -59.6 0 1 67.68 105.71
  L 79.19 104.24
  A 1.07 1.06 -5.3 0 0 80.12 103.13
  Q 79.82 98.14 84.46 96.06
  A 2.61 2.60 32.8 0 1 85.53 95.83
  L 92.87 95.83
  A 0.68 0.68 0.0 0 0 93.55 95.15
  Z
  M 130.46 91.80
  A 0.92 0.92 0.0 0 0 129.54 90.88
  L 95.27 90.88
  A 0.73 0.73 0.0 0 0 94.54 91.61
  L 94.54 95.37
  A 1.58 1.58 0.0 0 1 93.01 96.95
  Q 89.75 97.08 86.90 96.97
  C 83.99 96.87 82.40 98.22 81.35 100.66
  A 0.86 0.78 -35.0 0 0 81.27 101.01
  L 81.15 104.25
  A 0.88 0.88 0.0 0 1 80.40 105.10
  Q 75.84 105.82 72.81 106.06
  Q 67.59 106.48 65.51 107.88
  Q 61.20 110.79 62.17 116.81
  Q 66.53 143.69 71.49 175.50
  Q 71.85 177.80 72.17 178.89
  A 5.47 5.34 -80.8 0 0 72.44 179.61
  C 74.35 183.73 77.57 184.60 82.15 184.57
  Q 110.63 184.38 143.90 184.57
  C 149.90 184.60 152.47 180.51 153.46 175.03
  Q 154.76 167.88 162.51 118.53
  Q 163.20 114.13 162.91 112.94
  C 161.69 107.89 158.02 106.58 152.45 106.09
  Q 150.27 105.90 144.58 105.12
  A 0.87 0.87 0.0 0 1 143.83 104.28
  L 143.74 101.13
  A 1.38 1.30 -60.0 0 0 143.62 100.62
  Q 142.55 98.24 140.49 97.17
  A 1.61 1.61 0.0 0 0 139.77 97.00
  L 132.24 97.00
  A 1.78 1.78 0.0 0 1 130.46 95.22
  L 130.46 91.80
  Z"
/>
</g>
<g>
<path fill="#ffffff" d="
  M 112.38 84.70
  Q 95.37 84.72 95.33 84.72
  A 1.99 1.98 86.7 0 1 93.42 83.01
  L 86.41 31.32
  A 1.52 1.51 -8.8 0 1 87.65 29.62
  Q 100.21 27.38 112.30 27.36
  Q 124.38 27.34 136.95 29.55
  A 1.52 1.51 8.7 0 1 138.19 31.25
  L 131.32 82.96
  A 1.99 1.98 -86.9 0 1 129.42 84.68
  Q 129.38 84.68 112.38 84.70
  Z
  M 105.2900 35.9800
  A 12.81 6.29 -180.0 0 0 118.1000 42.2700
  A 12.81 6.29 -180.0 0 0 130.9100 35.9800
  A 12.81 6.29 -180.0 0 0 118.1000 29.6900
  A 12.81 6.29 -180.0 0 0 105.2900 35.9800
  Z
  M 123.7599 48.5111
  A 4.14 3.42 -0.4 0 0 119.5961 45.1201
  A 4.14 3.42 -0.4 0 0 115.4801 48.5689
  A 4.14 3.42 -0.4 0 0 119.6439 51.9599
  A 4.14 3.42 -0.4 0 0 123.7599 48.5111
  Z"
/>
<path fill="#ffffff" d="
  M 130.46 91.80
  L 130.46 95.22
  A 1.78 1.78 0.0 0 0 132.24 97.00
  L 139.77 97.00
  A 1.61 1.61 0.0 0 1 140.49 97.17
  Q 142.55 98.24 143.62 100.62
  A 1.38 1.30 -60.0 0 1 143.74 101.13
  L 143.83 104.28
  A 0.87 0.87 0.0 0 0 144.58 105.12
  Q 150.27 105.90 152.45 106.09
  C 158.02 106.58 161.69 107.89 162.91 112.94
  Q 163.20 114.13 162.51 118.53
  Q 154.76 167.88 153.46 175.03
  C 152.47 180.51 149.90 184.60 143.90 184.57
  Q 110.63 184.38 82.15 184.57
  C 77.57 184.60 74.35 183.73 72.44 179.61
  A 5.47 5.34 -80.8 0 1 72.17 178.89
  Q 71.85 177.80 71.49 175.50
  Q 66.53 143.69 62.17 116.81
  Q 61.20 110.79 65.51 107.88
  Q 67.59 106.48 72.81 106.06
  Q 75.84 105.82 80.40 105.10
  A 0.88 0.88 0.0 0 0 81.15 104.25
  L 81.27 101.01
  A 0.86 0.78 -35.0 0 1 81.35 100.66
  C 82.40 98.22 83.99 96.87 86.90 96.97
  Q 89.75 97.08 93.01 96.95
  A 1.58 1.58 0.0 0 0 94.54 95.37
  L 94.54 91.61
  A 0.73 0.73 0.0 0 1 95.27 90.88
  L 129.54 90.88
  A 0.92 0.92 0.0 0 1 130.46 91.80
  Z
  M 127.18 93.59
  L 97.84 93.59
  A 0.50 0.50 0.0 0 0 97.34 94.09
  L 97.34 98.03
  A 1.62 1.62 0.0 0 1 95.72 99.65
  L 86.65 99.65
  A 2.59 2.58 -0.0 0 0 84.06 102.23
  L 84.06 106.05
  A 1.88 1.87 86.9 0 1 82.39 107.92
  Q 77.83 108.40 70.04 109.29
  C 65.63 109.79 64.45 112.75 65.14 117.02
  Q 66.29 124.10 74.58 176.48
  C 75.31 181.14 78.07 181.74 82.45 181.73
  Q 98.82 181.69 144.96 181.68
  A 4.38 4.37 -74.3 0 0 148.69 179.59
  Q 150.25 177.03 150.75 174.03
  Q 153.64 156.63 159.92 116.35
  C 160.68 111.50 158.45 109.66 153.63 109.12
  Q 149.10 108.63 142.61 107.89
  A 1.88 1.87 -86.9 0 1 140.94 106.02
  L 140.94 102.29
  A 2.65 2.65 0.0 0 0 138.29 99.64
  L 129.26 99.64
  A 1.59 1.58 -90.0 0 1 127.68 98.05
  L 127.68 94.09
  A 0.50 0.50 0.0 0 0 127.18 93.59
  Z"
/>
</g>
<g>
<ellipse fill="#0057cb" cx="0.00" cy="0.00" transform="translate(118.10,35.98) rotate(-180.0)" rx="12.81" ry="6.29"/>
<ellipse fill="#0057cb" cx="0.00" cy="0.00" transform="translate(119.62,48.54) rotate(-0.4)" rx="4.14" ry="3.42"/>
<path fill="#a1d1ff" d="
  M 127.68 94.09
  L 127.68 98.05
  A 1.59 1.58 90.0 0 0 129.26 99.64
  L 138.29 99.64
  A 2.65 2.65 0.0 0 1 140.94 102.29
  L 140.94 106.02
  A 1.88 1.87 -86.9 0 0 142.61 107.89
  Q 149.10 108.63 153.63 109.12
  C 158.45 109.66 160.68 111.50 159.92 116.35
  Q 153.64 156.63 150.75 174.03
  Q 150.25 177.03 148.69 179.59
  A 4.38 4.37 -74.3 0 1 144.96 181.68
  Q 98.82 181.69 82.45 181.73
  C 78.07 181.74 75.31 181.14 74.58 176.48
  Q 66.29 124.10 65.14 117.02
  C 64.45 112.75 65.63 109.79 70.04 109.29
  Q 77.83 108.40 82.39 107.92
  A 1.88 1.87 86.9 0 0 84.06 106.05
  L 84.06 102.23
  A 2.59 2.58 0.0 0 1 86.65 99.65
  L 95.72 99.65
  A 1.62 1.62 0.0 0 0 97.34 98.03
  L 97.34 94.09
  A 0.50 0.50 0.0 0 1 97.84 93.59
  L 127.18 93.59
  A 0.50 0.50 0.0 0 1 127.68 94.09
  Z
  M 68.30 120.44
  Q 71.87 141.82 77.22 174.02
  C 77.87 177.95 79.45 179.12 83.51 179.12
  Q 133.83 179.09 140.58 179.12
  C 143.61 179.14 146.68 178.67 147.17 175.43
  Q 152.17 142.89 154.76 125.94
  C 155.43 121.56 151.77 117.93 148.24 115.83
  C 139.95 110.88 126.80 111.86 118.02 114.78
  C 102.48 119.96 84.70 131.64 68.78 120.14
  A 0.31 0.30 -76.7 0 0 68.30 120.44
  Z"
/>
</g>
<path fill="#0057cb" d="
  M 68.30 120.44
  A 0.31 0.30 -76.7 0 1 68.78 120.14
  C 84.70 131.64 102.48 119.96 118.02 114.78
  C 126.80 111.86 139.95 110.88 148.24 115.83
  C 151.77 117.93 155.43 121.56 154.76 125.94
  Q 152.17 142.89 147.17 175.43
  C 146.68 178.67 143.61 179.14 140.58 179.12
  Q 133.83 179.09 83.51 179.12
  C 79.45 179.12 77.87 177.95 77.22 174.02
  Q 71.87 141.82 68.30 120.44
  Z
  M 117.31 131.87
  A 0.77 0.76 -82.6 0 0 116.74 131.13
  C 114.11 130.43 110.09 130.50 108.99 133.54
  C 106.75 139.75 116.09 140.46 115.17 144.82
  A 2.31 2.31 0.0 0 1 113.10 146.64
  Q 111.54 146.77 110.04 146.06
  A 0.53 0.53 0.0 0 0 109.28 146.54
  L 109.28 147.41
  A 1.21 1.21 0.0 0 0 110.18 148.58
  Q 115.60 150.03 117.84 146.37
  C 119.28 144.02 117.84 141.33 115.61 139.62
  Q 113.29 137.85 112.54 137.12
  A 2.44 2.23 43.7 0 1 112.32 133.85
  Q 114.02 132.02 116.76 133.57
  A 0.37 0.37 0.0 0 0 117.31 133.25
  L 117.31 131.87
  Z
  M 85.17 140.01
  Q 85.27 147.34 85.25 148.32
  A 0.61 0.61 0.0 0 0 85.86 148.94
  C 90.44 148.93 95.61 149.25 94.68 142.81
  Q 94.43 141.06 92.79 140.43
  Q 92.13 140.18 92.12 139.92
  Q 92.12 139.65 92.77 139.38
  Q 94.40 138.71 94.60 136.95
  C 95.35 130.49 90.19 130.95 85.62 131.07
  A 0.61 0.61 0.0 0 0 85.02 131.70
  Q 85.07 132.68 85.17 140.01
  Z
  M 105.86 139.16
  A 0.44 0.44 0.0 0 0 105.42 138.72
  L 101.58 138.72
  A 0.44 0.44 0.0 0 1 101.14 138.28
  L 101.14 133.57
  A 0.44 0.44 0.0 0 1 101.58 133.13
  L 105.96 133.13
  A 0.44 0.44 0.0 0 0 106.40 132.69
  L 106.40 131.51
  A 0.44 0.44 0.0 0 0 105.96 131.07
  L 98.38 131.07
  A 0.44 0.44 0.0 0 0 97.94 131.51
  L 97.94 148.49
  A 0.44 0.44 0.0 0 0 98.38 148.93
  L 106.00 148.93
  A 0.44 0.44 0.0 0 0 106.44 148.49
  L 106.44 147.33
  A 0.44 0.44 0.0 0 0 106.00 146.89
  L 101.56 146.89
  A 0.44 0.44 0.0 0 1 101.12 146.45
  L 101.12 141.24
  A 0.44 0.44 0.0 0 1 101.56 140.80
  L 105.42 140.80
  A 0.44 0.44 0.0 0 0 105.86 140.36
  L 105.86 139.16
  Z
  M 124.69 148.95
  Q 125.13 148.95 125.70 148.96
  A 0.54 0.54 0.0 0 0 126.25 148.42
  L 126.25 133.70
  A 0.52 0.51 -90.0 0 1 126.76 133.18
  L 129.10 133.18
  A 0.83 0.83 0.0 0 0 129.93 132.35
  L 129.93 131.98
  A 0.91 0.91 0.0 0 0 129.03 131.07
  Q 127.04 131.06 124.66 131.07
  Q 122.29 131.07 120.30 131.09
  A 0.91 0.91 0.0 0 0 119.40 132.00
  L 119.40 132.37
  A 0.83 0.83 0.0 0 0 120.24 133.19
  L 122.58 133.19
  A 0.52 0.51 89.8 0 1 123.09 133.71
  L 123.14 148.43
  A 0.54 0.54 0.0 0 0 123.69 148.96
  Q 124.26 148.95 124.69 148.95
  Z
  M 131.60 139.94
  Q 131.60 147.31 131.63 148.20
  A 0.71 0.70 89.0 0 0 132.33 148.89
  L 139.45 148.89
  A 0.62 0.61 90.0 0 0 140.06 148.27
  L 140.06 147.45
  A 0.63 0.63 0.0 0 0 139.43 146.82
  L 135.50 146.82
  A 0.67 0.67 0.0 0 1 134.83 146.15
  L 134.83 141.91
  A 1.03 1.03 0.0 0 1 136.01 140.89
  Q 139.84 141.49 139.62 139.94
  Q 139.85 138.39 136.02 138.98
  A 1.03 1.03 0.0 0 1 134.83 137.97
  L 134.84 133.73
  A 0.67 0.67 0.0 0 1 135.51 133.06
  L 139.44 133.06
  A 0.63 0.63 0.0 0 0 140.07 132.43
  L 140.07 131.61
  A 0.62 0.61 -89.9 0 0 139.46 130.99
  L 132.34 130.98
  A 0.71 0.70 -89.0 0 0 131.64 131.67
  Q 131.61 132.56 131.60 139.94
  Z
  M 112.69 158.87
  L 108.79 158.87
  A 0.74 0.73 90.0 0 0 108.06 159.61
  L 108.06 160.25
  A 0.62 0.62 0.0 0 0 108.68 160.87
  L 109.99 160.87
  A 0.64 0.64 0.0 0 1 110.63 161.54
  Q 110.50 164.31 109.85 165.24
  A 1.98 1.98 0.0 0 1 107.13 165.75
  C 105.04 164.34 105.76 156.88 106.17 154.28
  C 106.52 152.04 109.82 152.05 110.16 154.26
  A 0.68 0.68 0.0 0 0 110.97 154.82
  Q 112.17 154.58 112.63 154.26
  A 0.78 0.77 -32.6 0 0 112.86 153.24
  C 110.68 149.36 104.27 149.54 103.23 154.44
  C 102.12 159.69 101.91 170.35 110.52 167.70
  C 113.30 166.84 113.27 161.95 113.24 159.42
  A 0.56 0.55 89.5 0 0 112.69 158.87
  Z
  M 82.93 156.55
  L 87.08 167.23
  A 1.53 1.53 0.0 0 0 90.04 166.67
  L 90.04 151.27
  A 0.53 0.53 0.0 0 0 89.51 150.74
  L 87.67 150.74
  A 0.42 0.42 0.0 0 0 87.25 151.16
  L 87.25 161.22
  A 0.06 0.06 0.0 0 1 87.13 161.24
  L 83.34 151.50
  A 1.55 1.55 0.0 0 0 80.34 152.06
  L 80.34 167.42
  A 0.53 0.53 0.0 0 0 80.87 167.95
  L 82.62 167.95
  A 0.50 0.50 0.0 0 0 83.12 167.43
  L 82.77 156.58
  A 0.08 0.08 0.0 0 1 82.93 156.55
  Z
  M 96.00 160.54
  A 0.41 0.41 0.0 0 1 96.41 160.13
  L 99.58 160.13
  A 0.41 0.41 0.0 0 0 99.99 159.72
  L 99.99 158.55
  A 0.41 0.41 0.0 0 0 99.58 158.14
  L 96.40 158.14
  A 0.41 0.41 0.0 0 1 95.99 157.73
  L 95.99 153.20
  A 0.41 0.41 0.0 0 1 96.40 152.79
  L 100.24 152.79
  A 0.41 0.41 0.0 0 0 100.65 152.38
  L 100.65 151.17
  A 0.41 0.41 0.0 0 0 100.24 150.76
  L 93.54 150.76
  A 0.41 0.41 0.0 0 0 93.13 151.17
  L 93.13 167.54
  A 0.41 0.41 0.0 0 0 93.54 167.95
  L 100.27 167.95
  A 0.41 0.41 0.0 0 0 100.68 167.54
  L 100.68 166.46
  A 0.41 0.41 0.0 0 0 100.27 166.05
  L 96.41 166.05
  A 0.41 0.41 0.0 0 1 96.00 165.64
  L 96.00 160.54
  Z
  M 119.29 166.03
  A 0.42 0.42 0.0 0 1 118.87 165.61
  L 118.87 151.20
  A 0.42 0.42 0.0 0 0 118.45 150.78
  L 116.45 150.78
  A 0.42 0.42 0.0 0 0 116.03 151.20
  L 116.03 167.53
  A 0.42 0.42 0.0 0 0 116.45 167.95
  L 123.00 167.95
  A 0.42 0.42 0.0 0 0 123.42 167.53
  L 123.42 166.45
  A 0.42 0.42 0.0 0 0 123.00 166.03
  L 119.29 166.03
  Z
  M 132.04 158.77
  A 0.63 0.63 0.0 0 0 131.40 158.11
  L 128.58 158.16
  A 0.60 0.59 89.1 0 1 127.97 157.56
  L 127.98 153.47
  A 0.69 0.68 -89.6 0 1 128.66 152.79
  L 131.97 152.80
  A 0.75 0.74 86.9 0 0 132.71 151.97
  L 132.67 151.45
  A 0.75 0.74 -2.1 0 0 131.92 150.77
  L 125.54 150.76
  A 0.42 0.41 90.0 0 0 125.13 151.18
  L 125.11 167.30
  A 0.67 0.67 0.0 0 0 125.79 167.97
  L 131.85 167.93
  A 0.91 0.90 3.2 0 0 132.75 167.13
  L 132.78 166.89
  A 0.80 0.79 -88.0 0 0 131.98 166.03
  L 128.72 166.04
  A 0.74 0.74 0.0 0 1 127.98 165.30
  L 127.98 160.64
  A 0.60 0.59 -88.2 0 1 128.61 160.04
  L 131.33 160.21
  A 0.61 0.60 3.3 0 0 131.98 159.64
  L 132.04 158.77
  Z
  M 137.86 160.75
  A 0.21 0.21 0.0 0 1 138.26 160.66
  L 141.41 167.37
  A 1.00 1.00 0.0 0 0 142.32 167.95
  L 143.84 167.95
  A 0.43 0.42 -12.4 0 0 144.23 167.35
  L 140.91 160.29
  A 0.66 0.66 0.0 0 1 141.24 159.41
  Q 143.99 158.23 143.44 153.99
  A 3.74 3.74 0.0 0 0 139.73 150.74
  L 136.36 150.74
  A 1.31 1.31 0.0 0 0 135.05 152.05
  L 135.05 167.29
  A 0.67 0.66 0.0 0 0 135.72 167.95
  L 137.27 167.95
  A 0.59 0.59 0.0 0 0 137.86 167.36
  L 137.86 160.75
  Z"
/>
<g>
<path fill="#ffffff" d="
  M 116.76 133.57
  Q 114.02 132.02 112.32 133.85
  A 2.44 2.23 43.7 0 0 112.54 137.12
  Q 113.29 137.85 115.61 139.62
  C 117.84 141.33 119.28 144.02 117.84 146.37
  Q 115.60 150.03 110.18 148.58
  A 1.21 1.21 0.0 0 1 109.28 147.41
  L 109.28 146.54
  A 0.53 0.53 0.0 0 1 110.04 146.06
  Q 111.54 146.77 113.10 146.64
  A 2.31 2.31 0.0 0 0 115.17 144.82
  C 116.09 140.46 106.75 139.75 108.99 133.54
  C 110.09 130.50 114.11 130.43 116.74 131.13
  A 0.77 0.76 -82.6 0 1 117.31 131.87
  L 117.31 133.25
  A 0.37 0.37 0.0 0 1 116.76 133.57
  Z"
/>
<path fill="#ffffff" d="
  M 92.12 139.92
  Q 92.13 140.18 92.79 140.43
  Q 94.43 141.06 94.68 142.81
  C 95.61 149.25 90.44 148.93 85.86 148.94
  A 0.61 0.61 0.0 0 1 85.25 148.32
  Q 85.27 147.34 85.17 140.01
  Q 85.07 132.68 85.02 131.70
  A 0.61 0.61 0.0 0 1 85.62 131.07
  C 90.19 130.95 95.35 130.49 94.60 136.95
  Q 94.40 138.71 92.77 139.38
  Q 92.12 139.65 92.12 139.92
  Z
  M 88.20 133.25
  L 88.14 138.61
  A 0.29 0.29 0.0 0 0 88.42 138.90
  L 88.82 138.91
  A 2.49 2.28 0.7 0 0 91.34 136.66
  L 91.36 135.28
  A 2.49 2.28 0.7 0 0 88.90 132.97
  L 88.50 132.96
  A 0.29 0.29 0.0 0 0 88.20 133.25
  Z
  M 88.16 141.18
  L 88.16 146.46
  A 0.33 0.33 0.0 0 0 88.49 146.79
  L 89.00 146.79
  A 2.56 2.38 0.0 0 0 91.56 144.41
  L 91.56 143.23
  A 2.56 2.38 0.0 0 0 89.00 140.85
  L 88.49 140.85
  A 0.33 0.33 0.0 0 0 88.16 141.18
  Z"
/>
<path fill="#ffffff" d="
  M 105.86 139.16
  L 105.86 140.36
  A 0.44 0.44 0.0 0 1 105.42 140.80
  L 101.56 140.80
  A 0.44 0.44 0.0 0 0 101.12 141.24
  L 101.12 146.45
  A 0.44 0.44 0.0 0 0 101.56 146.89
  L 106.00 146.89
  A 0.44 0.44 0.0 0 1 106.44 147.33
  L 106.44 148.49
  A 0.44 0.44 0.0 0 1 106.00 148.93
  L 98.38 148.93
  A 0.44 0.44 0.0 0 1 97.94 148.49
  L 97.94 131.51
  A 0.44 0.44 0.0 0 1 98.38 131.07
  L 105.96 131.07
  A 0.44 0.44 0.0 0 1 106.40 131.51
  L 106.40 132.69
  A 0.44 0.44 0.0 0 1 105.96 133.13
  L 101.58 133.13
  A 0.44 0.44 0.0 0 0 101.14 133.57
  L 101.14 138.28
  A 0.44 0.44 0.0 0 0 101.58 138.72
  L 105.42 138.72
  A 0.44 0.44 0.0 0 1 105.86 139.16
  Z"
/>
<path fill="#ffffff" d="
  M 124.66 131.07
  Q 127.04 131.06 129.03 131.07
  A 0.91 0.91 0.0 0 1 129.93 131.98
  L 129.93 132.35
  A 0.83 0.83 0.0 0 1 129.10 133.18
  L 126.76 133.18
  A 0.52 0.51 -90.0 0 0 126.25 133.70
  L 126.25 148.42
  A 0.54 0.54 0.0 0 1 125.70 148.96
  Q 125.13 148.95 124.69 148.95
  Q 124.26 148.95 123.69 148.96
  A 0.54 0.54 0.0 0 1 123.14 148.43
  L 123.09 133.71
  A 0.52 0.51 89.8 0 0 122.58 133.19
  L 120.24 133.19
  A 0.83 0.83 0.0 0 1 119.40 132.37
  L 119.40 132.00
  A 0.91 0.91 0.0 0 1 120.30 131.09
  Q 122.29 131.07 124.66 131.07
  Z"
/>
<path fill="#ffffff" d="
  M 139.62 139.94
  Q 139.84 141.49 136.01 140.89
  A 1.03 1.03 0.0 0 0 134.83 141.91
  L 134.83 146.15
  A 0.67 0.67 0.0 0 0 135.50 146.82
  L 139.43 146.82
  A 0.63 0.63 0.0 0 1 140.06 147.45
  L 140.06 148.27
  A 0.62 0.61 -90.0 0 1 139.45 148.89
  L 132.33 148.89
  A 0.71 0.70 89.0 0 1 131.63 148.20
  Q 131.60 147.31 131.60 139.94
  Q 131.61 132.56 131.64 131.67
  A 0.71 0.70 -89.0 0 1 132.34 130.98
  L 139.46 130.99
  A 0.62 0.61 -89.9 0 1 140.07 131.61
  L 140.07 132.43
  A 0.63 0.63 0.0 0 1 139.44 133.06
  L 135.51 133.06
  A 0.67 0.67 0.0 0 0 134.84 133.73
  L 134.83 137.97
  A 1.03 1.03 0.0 0 0 136.02 138.98
  Q 139.85 138.39 139.62 139.94
  Z"
/>
<path fill="#ffffff" d="
  M 113.24 159.42
  C 113.27 161.95 113.30 166.84 110.52 167.70
  C 101.91 170.35 102.12 159.69 103.23 154.44
  C 104.27 149.54 110.68 149.36 112.86 153.24
  A 0.78 0.77 -32.6 0 1 112.63 154.26
  Q 112.17 154.58 110.97 154.82
  A 0.68 0.68 0.0 0 1 110.16 154.26
  C 109.82 152.05 106.52 152.04 106.17 154.28
  C 105.76 156.88 105.04 164.34 107.13 165.75
  A 1.98 1.98 0.0 0 0 109.85 165.24
  Q 110.50 164.31 110.63 161.54
  A 0.64 0.64 0.0 0 0 109.99 160.87
  L 108.68 160.87
  A 0.62 0.62 0.0 0 1 108.06 160.25
  L 108.06 159.61
  A 0.74 0.73 90.0 0 1 108.79 158.87
  L 112.69 158.87
  A 0.56 0.55 89.5 0 1 113.24 159.42
  Z"
/>
<path fill="#ffffff" d="
  M 82.77 156.58
  L 83.12 167.43
  A 0.50 0.50 0.0 0 1 82.62 167.95
  L 80.87 167.95
  A 0.53 0.53 0.0 0 1 80.34 167.42
  L 80.34 152.06
  A 1.55 1.55 0.0 0 1 83.34 151.50
  L 87.13 161.24
  A 0.06 0.06 0.0 0 0 87.25 161.22
  L 87.25 151.16
  A 0.42 0.42 0.0 0 1 87.67 150.74
  L 89.51 150.74
  A 0.53 0.53 0.0 0 1 90.04 151.27
  L 90.04 166.67
  A 1.53 1.53 0.0 0 1 87.08 167.23
  L 82.93 156.55
  A 0.08 0.08 0.0 0 0 82.77 156.58
  Z"
/>
<path fill="#ffffff" d="
  M 96.00 160.54
  L 96.00 165.64
  A 0.41 0.41 0.0 0 0 96.41 166.05
  L 100.27 166.05
  A 0.41 0.41 0.0 0 1 100.68 166.46
  L 100.68 167.54
  A 0.41 0.41 0.0 0 1 100.27 167.95
  L 93.54 167.95
  A 0.41 0.41 0.0 0 1 93.13 167.54
  L 93.13 151.17
  A 0.41 0.41 0.0 0 1 93.54 150.76
  L 100.24 150.76
  A 0.41 0.41 0.0 0 1 100.65 151.17
  L 100.65 152.38
  A 0.41 0.41 0.0 0 1 100.24 152.79
  L 96.40 152.79
  A 0.41 0.41 0.0 0 0 95.99 153.20
  L 95.99 157.73
  A 0.41 0.41 0.0 0 0 96.40 158.14
  L 99.58 158.14
  A 0.41 0.41 0.0 0 1 99.99 158.55
  L 99.99 159.72
  A 0.41 0.41 0.0 0 1 99.58 160.13
  L 96.41 160.13
  A 0.41 0.41 0.0 0 0 96.00 160.54
  Z"
/>
<path fill="#ffffff" d="
  M 119.29 166.03
  L 123.00 166.03
  A 0.42 0.42 0.0 0 1 123.42 166.45
  L 123.42 167.53
  A 0.42 0.42 0.0 0 1 123.00 167.95
  L 116.45 167.95
  A 0.42 0.42 0.0 0 1 116.03 167.53
  L 116.03 151.20
  A 0.42 0.42 0.0 0 1 116.45 150.78
  L 118.45 150.78
  A 0.42 0.42 0.0 0 1 118.87 151.20
  L 118.87 165.61
  A 0.42 0.42 0.0 0 0 119.29 166.03
  Z"
/>
<path fill="#ffffff" d="
  M 132.04 158.77
  L 131.98 159.64
  A 0.61 0.60 3.3 0 1 131.33 160.21
  L 128.61 160.04
  A 0.60 0.59 -88.2 0 0 127.98 160.64
  L 127.98 165.30
  A 0.74 0.74 0.0 0 0 128.72 166.04
  L 131.98 166.03
  A 0.80 0.79 -88.0 0 1 132.78 166.89
  L 132.75 167.13
  A 0.91 0.90 3.2 0 1 131.85 167.93
  L 125.79 167.97
  A 0.67 0.67 0.0 0 1 125.11 167.30
  L 125.13 151.18
  A 0.42 0.41 90.0 0 1 125.54 150.76
  L 131.92 150.77
  A 0.75 0.74 -2.1 0 1 132.67 151.45
  L 132.71 151.97
  A 0.75 0.74 86.9 0 1 131.97 152.80
  L 128.66 152.79
  A 0.69 0.68 -89.6 0 0 127.98 153.47
  L 127.97 157.56
  A 0.60 0.59 89.1 0 0 128.58 158.16
  L 131.40 158.11
  A 0.63 0.63 0.0 0 1 132.04 158.77
  Z"
/>
<path fill="#ffffff" d="
  M 137.86 160.75
  L 137.86 167.36
  A 0.59 0.59 0.0 0 1 137.27 167.95
  L 135.72 167.95
  A 0.67 0.66 0.0 0 1 135.05 167.29
  L 135.05 152.05
  A 1.31 1.31 0.0 0 1 136.36 150.74
  L 139.73 150.74
  A 3.74 3.74 0.0 0 1 143.44 153.99
  Q 143.99 158.23 141.24 159.41
  A 0.66 0.66 0.0 0 0 140.91 160.29
  L 144.23 167.35
  A 0.43 0.42 -12.4 0 1 143.84 167.95
  L 142.32 167.95
  A 1.00 1.00 0.0 0 1 141.41 167.37
  L 138.26 160.66
  A 0.21 0.21 0.0 0 0 137.86 160.75
  Z
  M 137.86 153.15
  L 137.88 157.89
  A 0.44 0.44 0.0 0 0 138.32 158.33
  L 138.44 158.33
  A 2.26 2.23 -0.2 0 0 140.69 156.10
  L 140.69 154.94
  A 2.26 2.23 -0.2 0 0 138.42 152.71
  L 138.30 152.71
  A 0.44 0.44 0.0 0 0 137.86 153.15
  Z"
/>
</g>
<g>
<path fill="#0057cb" d="
  M 88.20 133.25
  A 0.29 0.29 0.0 0 1 88.50 132.96
  L 88.90 132.97
  A 2.49 2.28 0.7 0 1 91.36 135.28
  L 91.34 136.66
  A 2.49 2.28 0.7 0 1 88.82 138.91
  L 88.42 138.90
  A 0.29 0.29 0.0 0 1 88.14 138.61
  L 88.20 133.25
  Z"
/>
<path fill="#0057cb" d="
  M 88.16 141.18
  A 0.33 0.33 0.0 0 1 88.49 140.85
  L 89.00 140.85
  A 2.56 2.38 -0.0 0 1 91.56 143.23
  L 91.56 144.41
  A 2.56 2.38 0.0 0 1 89.00 146.79
  L 88.49 146.79
  A 0.33 0.33 0.0 0 1 88.16 146.46
  L 88.16 141.18
  Z"
/>
<path fill="#0057cb" d="
  M 137.86 153.15
  A 0.44 0.44 0.0 0 1 138.30 152.71
  L 138.42 152.71
  A 2.26 2.23 -0.2 0 1 140.69 154.94
  L 140.69 156.10
  A 2.26 2.23 -0.2 0 1 138.44 158.33
  L 138.32 158.33
  A 0.44 0.44 0.0 0 1 137.88 157.89
  L 137.86 153.15
  Z"
/>
</g>
</svg>
